<mxfile host="app.diagrams.net" modified="2024-05-16T06:07:00.604Z" agent="Mozilla/5.0 (Macintosh; Intel Mac OS X 10_15_7) AppleWebKit/537.36 (KHTML, like Gecko) Chrome/124.0.0.0 Safari/537.36" version="24.4.0" etag="4vsXivoBdi48jQix1Hod" type="github">
  <diagram name="Page-1" id="PgM0EszBIREyIGn3IpGx">
    <mxGraphModel>
      <root>
        <mxCell id="0" />
        <mxCell id="1" parent="0" />
      </root>
    </mxGraphModel>
  </diagram>
</mxfile>
